<svg width="2290" height="460" viewBox="0 0 2290 460" fill="none" xmlns="http://www.w3.org/2000/svg">
<g filter="url(#filter0_i_14_116)">
<path d="M581.019 403.2C560.485 403.2 542.352 399.067 526.619 390.8C510.885 382.533 498.619 371.067 489.819 356.4C481.285 341.467 477.019 324.267 477.019 304.8V215.2C477.019 195.733 481.285 178.533 489.819 163.6C498.619 148.667 510.885 137.2 526.619 129.2C542.352 120.933 560.485 116.8 581.019 116.8C601.285 116.8 619.152 120.8 634.619 128.8C650.352 136.8 662.485 147.733 671.019 161.6C679.819 175.2 684.219 190.4 684.219 207.2V210C684.219 211.333 683.685 212.533 682.619 213.6C681.819 214.4 680.752 214.8 679.419 214.8H632.619C631.285 214.8 630.085 214.4 629.019 213.6C628.219 212.533 627.819 211.333 627.819 210V208.8C627.819 196.533 623.552 186.267 615.019 178C606.485 169.467 595.152 165.2 581.019 165.2C566.619 165.2 555.019 169.733 546.219 178.8C537.685 187.6 533.419 199.2 533.419 213.6V306.4C533.419 320.8 538.085 332.533 547.419 341.6C556.752 350.4 568.619 354.8 583.019 354.8C596.885 354.8 607.952 351.2 616.219 344C624.485 336.533 628.619 326.267 628.619 313.2V295.2C628.619 293.867 627.952 293.2 626.619 293.2H581.819C580.485 293.2 579.285 292.8 578.219 292C577.419 290.933 577.019 289.733 577.019 288.4V251.6C577.019 250.267 577.419 249.2 578.219 248.4C579.285 247.333 580.485 246.8 581.819 246.8H679.419C680.752 246.8 681.819 247.333 682.619 248.4C683.685 249.2 684.219 250.267 684.219 251.6V304.4C684.219 324.667 679.952 342.267 671.419 357.2C662.885 372.133 650.752 383.6 635.019 391.6C619.552 399.333 601.552 403.2 581.019 403.2ZM826.341 191.6C835.941 191.6 843.541 193.467 849.141 197.2C851.274 198.267 852.074 200.267 851.541 203.2L843.141 248.8C842.874 252 841.007 252.933 837.541 251.6C833.541 250.267 828.874 249.6 823.541 249.6C821.407 249.6 818.474 249.867 814.741 250.4C805.141 251.2 797.007 254.8 790.341 261.2C783.674 267.333 780.341 275.6 780.341 286V395.2C780.341 396.533 779.807 397.733 778.741 398.8C777.941 399.6 776.874 400 775.541 400H728.741C727.407 400 726.207 399.6 725.141 398.8C724.341 397.733 723.941 396.533 723.941 395.2V199.2C723.941 197.867 724.341 196.8 725.141 196C726.207 194.933 727.407 194.4 728.741 194.4H775.541C776.874 194.4 777.941 194.933 778.741 196C779.807 196.8 780.341 197.867 780.341 199.2V214.4C780.341 215.2 780.607 215.733 781.141 216C781.674 216.267 782.074 216.133 782.341 215.6C793.274 199.6 807.941 191.6 826.341 191.6ZM962.788 403.2C940.388 403.2 921.188 397.333 905.188 385.6C889.188 373.867 878.254 357.867 872.388 337.6C868.654 325.067 866.788 311.467 866.788 296.8C866.788 281.067 868.654 266.933 872.388 254.4C878.521 234.667 889.588 219.2 905.588 208C921.588 196.8 940.788 191.2 963.188 191.2C985.054 191.2 1003.72 196.8 1019.19 208C1034.65 218.933 1045.59 234.267 1051.99 254C1056.25 267.333 1058.39 281.333 1058.39 296C1058.39 310.4 1056.52 323.867 1052.79 336.4C1046.92 357.2 1035.99 373.6 1019.99 385.6C1004.25 397.333 985.188 403.2 962.788 403.2ZM962.788 354.8C971.588 354.8 979.054 352.133 985.188 346.8C991.321 341.467 995.721 334.133 998.388 324.8C1000.52 316.267 1001.59 306.933 1001.59 296.8C1001.59 285.6 1000.52 276.133 998.388 268.4C995.454 259.333 990.921 252.267 984.788 247.2C978.654 242.133 971.188 239.6 962.388 239.6C953.321 239.6 945.721 242.133 939.588 247.2C933.721 252.267 929.454 259.333 926.788 268.4C924.654 274.8 923.588 284.267 923.588 296.8C923.588 308.8 924.521 318.133 926.388 324.8C929.054 334.133 933.454 341.467 939.588 346.8C945.988 352.133 953.721 354.8 962.788 354.8ZM1278.24 123.2C1279.58 121.067 1281.44 120 1283.84 120H1330.64C1331.98 120 1333.04 120.533 1333.84 121.6C1334.91 122.4 1335.44 123.467 1335.44 124.8V395.2C1335.44 396.533 1334.91 397.733 1333.84 398.8C1333.04 399.6 1331.98 400 1330.64 400H1283.84C1282.51 400 1281.31 399.6 1280.24 398.8C1279.44 397.733 1279.04 396.533 1279.04 395.2V218.8C1279.04 217.733 1278.78 217.2 1278.24 217.2C1277.71 217.2 1277.18 217.6 1276.64 218.4L1234.24 284.8C1232.91 286.933 1231.04 288 1228.64 288H1205.04C1202.64 288 1200.78 286.933 1199.44 284.8L1157.04 218.4C1156.51 217.6 1155.98 217.333 1155.44 217.6C1154.91 217.6 1154.64 218.133 1154.64 219.2V395.2C1154.64 396.533 1154.11 397.733 1153.04 398.8C1152.24 399.6 1151.18 400 1149.84 400H1103.04C1101.71 400 1100.51 399.6 1099.44 398.8C1098.64 397.733 1098.24 396.533 1098.24 395.2V124.8C1098.24 123.467 1098.64 122.4 1099.44 121.6C1100.51 120.533 1101.71 120 1103.04 120H1149.84C1152.24 120 1154.11 121.067 1155.44 123.2L1215.44 216.4C1216.24 218 1217.04 218 1217.84 216.4L1278.24 123.2ZM1462.58 191.2C1479.91 191.2 1495.38 194.267 1508.98 200.4C1522.58 206.267 1533.11 214.4 1540.58 224.8C1548.31 235.2 1552.18 246.8 1552.18 259.6V395.2C1552.18 396.533 1551.65 397.733 1550.58 398.8C1549.78 399.6 1548.71 400 1547.38 400H1500.58C1499.25 400 1498.05 399.6 1496.98 398.8C1496.18 397.733 1495.78 396.533 1495.78 395.2V382C1495.78 381.2 1495.51 380.667 1494.98 380.4C1494.45 380.133 1493.91 380.4 1493.38 381.2C1482.18 395.867 1464.18 403.2 1439.38 403.2C1418.58 403.2 1401.78 398.133 1388.98 388C1376.18 377.867 1369.78 362.933 1369.78 343.2C1369.78 322.667 1376.98 306.8 1391.38 295.6C1405.78 284.133 1426.31 278.4 1452.98 278.4H1493.78C1495.11 278.4 1495.78 277.733 1495.78 276.4V267.6C1495.78 258.8 1493.11 252 1487.78 247.2C1482.45 242.133 1474.45 239.6 1463.78 239.6C1455.51 239.6 1448.58 241.067 1442.98 244C1437.65 246.933 1434.18 251.067 1432.58 256.4C1431.78 259.333 1430.05 260.667 1427.38 260.4L1378.98 254C1375.78 253.467 1374.31 252.267 1374.58 250.4C1375.65 239.2 1380.05 229.067 1387.78 220C1395.78 210.933 1406.18 203.867 1418.98 198.8C1432.05 193.733 1446.58 191.2 1462.58 191.2ZM1454.58 361.2C1466.05 361.2 1475.78 358.133 1483.78 352C1491.78 345.867 1495.78 338 1495.78 328.4V314C1495.78 312.667 1495.11 312 1493.78 312H1464.98C1452.98 312 1443.51 314.267 1436.58 318.8C1429.91 323.333 1426.58 329.733 1426.58 338C1426.58 345.2 1429.11 350.933 1434.18 355.2C1439.25 359.2 1446.05 361.2 1454.58 361.2ZM1694.31 191.6C1703.91 191.6 1711.51 193.467 1717.11 197.2C1719.24 198.267 1720.04 200.267 1719.51 203.2L1711.11 248.8C1710.84 252 1708.98 252.933 1705.51 251.6C1701.51 250.267 1696.84 249.6 1691.51 249.6C1689.38 249.6 1686.44 249.867 1682.71 250.4C1673.11 251.2 1664.98 254.8 1658.31 261.2C1651.64 267.333 1648.31 275.6 1648.31 286V395.2C1648.31 396.533 1647.78 397.733 1646.71 398.8C1645.91 399.6 1644.84 400 1643.51 400H1596.71C1595.38 400 1594.18 399.6 1593.11 398.8C1592.31 397.733 1591.91 396.533 1591.91 395.2V199.2C1591.91 197.867 1592.31 196.8 1593.11 196C1594.18 194.933 1595.38 194.4 1596.71 194.4H1643.51C1644.84 194.4 1645.91 194.933 1646.71 196C1647.78 196.8 1648.31 197.867 1648.31 199.2V214.4C1648.31 215.2 1648.58 215.733 1649.11 216C1649.64 216.267 1650.04 216.133 1650.31 215.6C1661.24 199.6 1675.91 191.6 1694.31 191.6ZM1749.83 400C1748.5 400 1747.3 399.6 1746.23 398.8C1745.43 397.733 1745.03 396.533 1745.03 395.2V124.8C1745.03 123.467 1745.43 122.4 1746.23 121.6C1747.3 120.533 1748.5 120 1749.83 120H1796.63C1797.97 120 1799.03 120.533 1799.83 121.6C1800.9 122.4 1801.43 123.467 1801.43 124.8V259.6C1801.43 260.4 1801.7 260.933 1802.23 261.2C1802.77 261.2 1803.3 260.933 1803.83 260.4L1858.23 197.2C1860.1 195.333 1862.1 194.4 1864.23 194.4H1917.43C1920.1 194.4 1921.43 195.333 1921.43 197.2C1921.43 198 1921.03 199.067 1920.23 200.4L1869.43 264.8C1868.9 265.867 1868.77 266.8 1869.03 267.6L1928.63 394.4C1929.17 395.467 1929.43 396.267 1929.43 396.8C1929.43 398.933 1927.97 400 1925.03 400H1875.83C1873.17 400 1871.3 398.8 1870.23 396.4L1830.63 302.8C1830.37 302.267 1829.83 302 1829.03 302C1828.5 301.733 1828.1 301.867 1827.83 302.4L1802.23 334.4C1801.7 335.467 1801.43 336.267 1801.43 336.8V395.2C1801.43 396.533 1800.9 397.733 1799.83 398.8C1799.03 399.6 1797.97 400 1796.63 400H1749.83ZM2121.96 276C2123.56 286.133 2124.09 297.467 2123.56 310C2123.29 313.2 2121.56 314.8 2118.36 314.8H1994.76C1993.16 314.8 1992.62 315.467 1993.16 316.8C1993.96 322.133 1995.42 327.467 1997.56 332.8C2004.49 347.733 2018.62 355.2 2039.96 355.2C2057.02 354.933 2070.49 348 2080.36 334.4C2081.42 332.8 2082.62 332 2083.96 332C2084.76 332 2085.69 332.533 2086.76 333.6L2115.56 362C2116.89 363.333 2117.56 364.533 2117.56 365.6C2117.56 366.133 2117.02 367.2 2115.96 368.8C2107.16 379.733 2095.82 388.267 2081.96 394.4C2068.09 400.267 2052.89 403.2 2036.36 403.2C2013.42 403.2 1993.96 398 1977.96 387.6C1962.22 377.2 1950.89 362.667 1943.96 344C1938.36 330.667 1935.56 313.2 1935.56 291.6C1935.56 276.933 1937.56 264 1941.56 252.8C1947.69 233.867 1958.36 218.8 1973.56 207.6C1989.02 196.4 2007.29 190.8 2028.36 190.8C2055.02 190.8 2076.36 198.533 2092.36 214C2108.62 229.467 2118.49 250.133 2121.96 276ZM2028.76 239.6C2011.96 239.6 2000.89 247.467 1995.56 263.2C1994.49 266.667 1993.56 270.933 1992.76 276C1992.76 277.333 1993.42 278 1994.76 278H2063.96C2065.56 278 2066.09 277.333 2065.56 276C2064.22 268.267 2063.56 264.533 2063.56 264.8C2061.16 256.8 2056.89 250.667 2050.76 246.4C2044.89 241.867 2037.56 239.6 2028.76 239.6ZM2271.63 234.8C2271.63 236.133 2271.09 237.333 2270.03 238.4C2269.23 239.2 2268.16 239.6 2266.83 239.6H2228.43C2227.09 239.6 2226.43 240.267 2226.43 241.6V326.4C2226.43 335.2 2228.16 341.733 2231.63 346C2235.36 350.267 2241.23 352.4 2249.23 352.4H2262.43C2263.76 352.4 2264.83 352.933 2265.63 354C2266.69 354.8 2267.23 355.867 2267.23 357.2V395.2C2267.23 398.133 2265.63 399.867 2262.43 400.4C2251.23 400.933 2243.23 401.2 2238.43 401.2C2216.29 401.2 2199.76 397.6 2188.83 390.4C2177.89 382.933 2172.29 369.067 2172.03 348.8V241.6C2172.03 240.267 2171.36 239.6 2170.03 239.6H2147.23C2145.89 239.6 2144.69 239.2 2143.63 238.4C2142.83 237.333 2142.43 236.133 2142.43 234.8V199.2C2142.43 197.867 2142.83 196.8 2143.63 196C2144.69 194.933 2145.89 194.4 2147.23 194.4H2170.03C2171.36 194.4 2172.03 193.733 2172.03 192.4V144.8C2172.03 143.467 2172.43 142.4 2173.23 141.6C2174.29 140.533 2175.49 140 2176.83 140H2221.63C2222.96 140 2224.03 140.533 2224.83 141.6C2225.89 142.4 2226.43 143.467 2226.43 144.8V192.4C2226.43 193.733 2227.09 194.4 2228.43 194.4H2266.83C2268.16 194.4 2269.23 194.933 2270.03 196C2271.09 196.8 2271.63 197.867 2271.63 199.2V234.8Z" fill="#6366F1"/>
</g>
<path fill-rule="evenodd" clip-rule="evenodd" d="M307.687 57C365.5 57 403 94.5 403 152.313V361.687C403 419.5 365.5 457 307.687 457H98.3127C40.5 457 3 419.5 3 361.687V152.313C3 94.5 40.5 57 98.3127 57H307.687Z" stroke="#BFBFBF" stroke-width="6"/>
<g filter="url(#filter1_di_14_116)">
<path fill-rule="evenodd" clip-rule="evenodd" d="M203.667 424.333C295.714 424.333 370.333 349.714 370.333 257.667C370.333 165.619 295.714 91 203.667 91C111.619 91 37 165.619 37 257.667C37 349.714 111.619 424.333 203.667 424.333Z" fill="url(#paint0_linear_14_116)"/>
</g>
<g filter="url(#filter2_di_14_116)">
<path fill-rule="evenodd" clip-rule="evenodd" d="M93 338.667L124.667 358.667L164.667 290.333L223 325.333L274.667 232L311.333 253.667L298 157L208 193.667L243 213.667L209.667 273.667L151.333 238.667L93 338.667Z" fill="white"/>
</g>
<defs>
<filter id="filter0_i_14_116" x="477.019" y="116.8" width="1798.61" height="296.4" filterUnits="userSpaceOnUse" color-interpolation-filters="sRGB">
<feFlood flood-opacity="0" result="BackgroundImageFix"/>
<feBlend mode="normal" in="SourceGraphic" in2="BackgroundImageFix" result="shape"/>
<feColorMatrix in="SourceAlpha" type="matrix" values="0 0 0 0 0 0 0 0 0 0 0 0 0 0 0 0 0 0 127 0" result="hardAlpha"/>
<feOffset dx="4" dy="10"/>
<feGaussianBlur stdDeviation="5"/>
<feComposite in2="hardAlpha" operator="arithmetic" k2="-1" k3="1"/>
<feColorMatrix type="matrix" values="0 0 0 0 0 0 0 0 0 0 0 0 0 0 0 0 0 0 0.25 0"/>
<feBlend mode="normal" in2="shape" result="effect1_innerShadow_14_116"/>
</filter>
<filter id="filter1_di_14_116" x="33" y="91" width="341.333" height="343.333" filterUnits="userSpaceOnUse" color-interpolation-filters="sRGB">
<feFlood flood-opacity="0" result="BackgroundImageFix"/>
<feColorMatrix in="SourceAlpha" type="matrix" values="0 0 0 0 0 0 0 0 0 0 0 0 0 0 0 0 0 0 127 0" result="hardAlpha"/>
<feOffset dy="4"/>
<feGaussianBlur stdDeviation="2"/>
<feComposite in2="hardAlpha" operator="out"/>
<feColorMatrix type="matrix" values="0 0 0 0 0 0 0 0 0 0 0 0 0 0 0 0 0 0 0.25 0"/>
<feBlend mode="normal" in2="BackgroundImageFix" result="effect1_dropShadow_14_116"/>
<feBlend mode="normal" in="SourceGraphic" in2="effect1_dropShadow_14_116" result="shape"/>
<feColorMatrix in="SourceAlpha" type="matrix" values="0 0 0 0 0 0 0 0 0 0 0 0 0 0 0 0 0 0 127 0" result="hardAlpha"/>
<feOffset dy="10"/>
<feGaussianBlur stdDeviation="5"/>
<feComposite in2="hardAlpha" operator="arithmetic" k2="-1" k3="1"/>
<feColorMatrix type="matrix" values="0 0 0 0 0 0 0 0 0 0 0 0 0 0 0 0 0 0 0.25 0"/>
<feBlend mode="normal" in2="shape" result="effect2_innerShadow_14_116"/>
</filter>
<filter id="filter2_di_14_116" x="89" y="157" width="226.333" height="209.667" filterUnits="userSpaceOnUse" color-interpolation-filters="sRGB">
<feFlood flood-opacity="0" result="BackgroundImageFix"/>
<feColorMatrix in="SourceAlpha" type="matrix" values="0 0 0 0 0 0 0 0 0 0 0 0 0 0 0 0 0 0 127 0" result="hardAlpha"/>
<feOffset dy="4"/>
<feGaussianBlur stdDeviation="2"/>
<feComposite in2="hardAlpha" operator="out"/>
<feColorMatrix type="matrix" values="0 0 0 0 0 0 0 0 0 0 0 0 0 0 0 0 0 0 0.25 0"/>
<feBlend mode="normal" in2="BackgroundImageFix" result="effect1_dropShadow_14_116"/>
<feBlend mode="normal" in="SourceGraphic" in2="effect1_dropShadow_14_116" result="shape"/>
<feColorMatrix in="SourceAlpha" type="matrix" values="0 0 0 0 0 0 0 0 0 0 0 0 0 0 0 0 0 0 127 0" result="hardAlpha"/>
<feOffset dx="2" dy="4"/>
<feGaussianBlur stdDeviation="2.5"/>
<feComposite in2="hardAlpha" operator="arithmetic" k2="-1" k3="1"/>
<feColorMatrix type="matrix" values="0 0 0 0 0 0 0 0 0 0 0 0 0 0 0 0 0 0 0.25 0"/>
<feBlend mode="normal" in2="shape" result="effect2_innerShadow_14_116"/>
</filter>
<linearGradient id="paint0_linear_14_116" x1="37" y1="91" x2="37" y2="424.333" gradientUnits="userSpaceOnUse">
<stop stop-color="#6366F1"/>
<stop offset="1" stop-color="#5EEAD4"/>
</linearGradient>
</defs>
</svg>
