<svg width="638" height="216" viewBox="0 0 638 216" fill="none" xmlns="http://www.w3.org/2000/svg">
<g filter="url(#filter0_di_7_69)">
<path d="M70.8 133.12C71.28 138.08 71.52 141.96 71.52 144.76C71.52 155.4 69.2 163.96 64.56 170.44C59.92 176.92 51.56 180.16 39.48 180.16C32.76 180.16 26.74 178.38 21.42 174.82C16.14 171.26 11.98 166.12 8.94 159.4C5.94 152.64 4.44 144.64 4.44 135.4C4.44 127.2 6.02 119.88 9.18 113.44C12.34 107 16.72 101.98 22.32 98.38C27.96 94.74 34.36 92.92 41.52 92.92C46.4 92.92 50.44 93.3 53.64 94.06C56.88 94.82 59.38 95.72 61.14 96.76C62.9 97.8 64.48 99 65.88 100.36L59.28 113.68C55.96 109.28 50.12 107.08 41.76 107.08C37.76 107.08 34.14 108.26 30.9 110.62C27.66 112.98 25.12 116.28 23.28 120.52C21.44 124.76 20.52 129.6 20.52 135.04C20.52 141.6 21.3 147.28 22.86 152.08C24.46 156.84 26.7 160.48 29.58 163C32.5 165.48 35.88 166.72 39.72 166.72C45.76 166.72 50.1 165.3 52.74 162.46C55.42 159.62 56.76 155.32 56.76 149.56C56.76 148.92 56.72 147.84 56.64 146.32H39.48V133.12H70.8ZM83.7488 118.24H97.3088L98.0288 128.8C99.3088 125.72 101.329 123.08 104.089 120.88C106.849 118.64 110.749 117.52 115.789 117.52C117.789 117.52 119.629 117.84 121.309 118.48L117.949 134.2C117.269 133.52 116.449 133.04 115.489 132.76C114.569 132.44 113.429 132.28 112.069 132.28C109.269 132.28 106.849 132.88 104.809 134.08C102.809 135.24 101.289 136.6 100.249 138.16C99.2488 139.72 98.7488 141 98.7488 142V178H83.7488V118.24Z" fill="#2E8B57"/>
</g>
<g filter="url(#filter1_di_7_69)">
<path d="M334.36 118.8C340.24 118.8 344.68 120.7 347.68 124.5C350.72 128.26 352.24 133.6 352.24 140.52V180H337V142.08C337 138.6 336.32 135.88 334.96 133.92C333.64 131.92 331.6 130.92 328.84 130.92C326.96 130.92 325.16 131.4 323.44 132.36C321.76 133.32 320.4 134.66 319.36 136.38C318.32 138.06 317.8 139.96 317.8 142.08V180H302.44V142.08C302.44 138.68 301.68 135.94 300.16 133.86C298.68 131.74 296.56 130.68 293.8 130.68C291.88 130.68 290.12 131.18 288.52 132.18C286.92 133.14 285.64 134.5 284.68 136.26C283.72 137.98 283.24 139.92 283.24 142.08V180H267.88V120.24H281.68L282.04 128.16C286.08 121.92 291.96 118.8 299.68 118.8C303.68 118.8 307.02 119.68 309.7 121.44C312.42 123.2 314.46 125.76 315.82 129.12C319.9 122.24 326.08 118.8 334.36 118.8ZM381.482 181.68C377.922 181.68 374.922 180.88 372.482 179.28C370.042 177.68 368.202 175.52 366.962 172.8C365.762 170.08 365.162 167.04 365.162 163.68C365.162 160.76 366.122 157.86 368.042 154.98C370.002 152.06 373.462 149.58 378.422 147.54C383.382 145.5 390.082 144.48 398.522 144.48V141.72C398.522 138.44 397.722 135.9 396.122 134.1C394.562 132.3 391.802 131.4 387.842 131.4C384.722 131.4 381.662 131.94 378.662 133.02C375.702 134.06 373.522 135.36 372.122 136.92L367.322 125.4C370.042 123.56 373.422 122 377.462 120.72C381.502 119.44 385.802 118.8 390.362 118.8C396.082 118.8 400.602 119.68 403.922 121.44C407.282 123.2 409.642 125.68 411.002 128.88C412.362 132.08 413.042 136.04 413.042 140.76V180H400.202L399.122 171.48C397.002 174.92 394.482 177.48 391.562 179.16C388.682 180.84 385.322 181.68 381.482 181.68ZM387.842 170.16C389.682 170.16 391.622 169.42 393.662 167.94C395.702 166.46 397.322 164.6 398.522 162.36V153.84C397.962 153.76 397.002 153.72 395.642 153.72C391.602 153.72 387.982 154.4 384.782 155.76C381.622 157.08 380.042 159.24 380.042 162.24C380.042 165.08 380.662 167.12 381.902 168.36C383.182 169.56 385.162 170.16 387.842 170.16ZM428.53 120.24H442.09L442.81 130.8C444.09 127.72 446.11 125.08 448.87 122.88C451.63 120.64 455.53 119.52 460.57 119.52C462.57 119.52 464.41 119.84 466.09 120.48L462.73 136.2C462.05 135.52 461.23 135.04 460.27 134.76C459.35 134.44 458.21 134.28 456.85 134.28C454.05 134.28 451.63 134.88 449.59 136.08C447.59 137.24 446.07 138.6 445.03 140.16C444.03 141.72 443.53 143 443.53 144V180H428.53V120.24ZM475.43 88.8H489.59V133.56L489.11 147.6L507.47 120.24H524.51L503.63 147.72L526.55 180H508.43L489.11 151.08L489.59 165.72V180H475.43V88.8ZM560.011 181.56C553.571 181.56 548.251 180.2 544.051 177.48C539.851 174.72 536.771 171.04 534.811 166.44C532.891 161.84 531.931 156.64 531.931 150.84C531.931 144.92 533.011 139.54 535.171 134.7C537.371 129.82 540.571 125.96 544.771 123.12C548.971 120.24 553.971 118.8 559.771 118.8C568.411 118.8 574.591 121.3 578.311 126.3C582.031 131.26 583.891 138.68 583.891 148.56C583.891 150.48 583.811 152.64 583.651 155.04H547.651C547.891 159.88 549.231 163.62 551.671 166.26C554.151 168.86 557.771 170.16 562.531 170.16C565.011 170.16 567.671 169.62 570.511 168.54C573.351 167.42 575.451 166.08 576.811 164.52L581.611 175.92C575.971 179.68 568.771 181.56 560.011 181.56ZM568.651 145.68C568.651 139.8 567.911 135.76 566.431 133.56C564.991 131.32 562.891 130.2 560.131 130.2C556.251 130.2 553.231 131.64 551.071 134.52C548.951 137.4 547.771 141.12 547.531 145.68H568.651ZM617.677 181.8C613.237 181.8 609.757 181.04 607.237 179.52C604.717 178 602.937 175.72 601.897 172.68C600.897 169.6 600.397 165.56 600.397 160.56V132.84H592.597V120.24H600.997L601.837 107.64L614.917 102V120.24H629.677V132.84H614.917V160.2C614.917 163.56 615.377 165.94 616.297 167.34C617.217 168.74 618.597 169.44 620.437 169.44C622.077 169.44 623.857 169.02 625.777 168.18C627.737 167.3 629.357 166.32 630.637 165.24L633.517 177.36C631.757 178.6 629.217 179.64 625.897 180.48C622.617 181.36 619.877 181.8 617.677 181.8Z" fill="#2E8B57"/>
</g>
<g filter="url(#filter2_di_7_69)">
<path d="M256 138H257.5V136.5C257.5 124.95 254.99 113.573 250.186 103.387C245.382 93.2006 238.429 84.5128 229.934 78.1167L228.58 77.0976L227.733 78.5648L207.088 114.305L206.424 115.455L207.485 116.254C210.386 118.438 212.786 121.426 214.454 124.962C216.122 128.499 217 132.464 217 136.5V138H218.5H256Z" fill="#FFDF00" stroke="#2E8B57" stroke-width="3"/>
<path d="M230.331 80.0653L230.995 78.9154L229.934 78.1167C220.678 71.1481 209.924 67.151 198.808 66.573C187.692 65.9949 176.657 68.8595 166.876 74.8441C157.097 80.8271 148.942 89.7003 143.252 100.503C137.563 111.306 134.543 123.649 134.501 136.23L134.496 137.728L135.994 137.735L173.494 137.9L174.995 137.907L175 136.406C175.015 132.009 176.071 127.709 178.045 123.962C180.018 120.216 182.827 117.175 186.155 115.138C189.48 113.104 193.208 112.143 196.946 112.337C200.685 112.532 204.327 113.876 207.485 116.254L208.838 117.273L209.686 115.806L230.331 80.0653Z" fill="#FFDF00" stroke="#2E8B57" stroke-width="3"/>
<path d="M136.007 134.735L134.506 134.728L134.5 136.23C134.469 145.408 136.024 154.506 139.078 163.006C142.132 171.506 146.629 179.247 152.319 185.781C158.01 192.315 164.784 197.517 172.26 201.076C179.737 204.637 187.764 206.482 195.88 206.5C203.997 206.518 212.03 204.708 219.52 201.181C227.008 197.654 233.8 192.483 239.513 185.973C245.225 179.464 249.748 171.743 252.831 163.257C255.915 154.77 257.5 145.678 257.5 136.5V135H256H218.5H217V136.5C217 139.706 216.446 142.877 215.373 145.829C214.301 148.782 212.732 151.452 210.767 153.692C208.802 155.931 206.48 157.693 203.941 158.889C201.403 160.085 198.691 160.693 195.96 160.687C193.228 160.681 190.519 160.061 187.984 158.854C185.449 157.647 183.133 155.874 181.175 153.626C179.217 151.378 177.658 148.7 176.595 145.742C175.532 142.785 174.989 139.612 175 136.406L175.005 134.907L173.507 134.901L136.007 134.735Z" fill="#FFDF00" stroke="#2E8B57" stroke-width="3"/>
</g>
<g filter="url(#filter3_d_7_69)">
<path d="M256 14L292.667 2L300 38" stroke="#2E8B57" stroke-width="3"/>
</g>
<g filter="url(#filter4_d_7_69)">
<path d="M60 197.665L65.5 198.472C71 199.279 82 200.894 93 187.807C104 174.72 115 146.933 126 138.259C137 129.585 148 140.024 159 135.689C170 131.353 181 112.242 192 109.867C203 107.491 214 121.851 225 115.077C236 108.303 247 80.3946 258 58.1928C269 35.991 280 19.4955 285.5 11.2477L291 3" stroke="#2E8B57" stroke-width="3"/>
</g>
<defs>
<filter id="filter0_di_7_69" x="0.439999" y="92.92" width="124.869" height="95.24" filterUnits="userSpaceOnUse" color-interpolation-filters="sRGB">
<feFlood flood-opacity="0" result="BackgroundImageFix"/>
<feColorMatrix in="SourceAlpha" type="matrix" values="0 0 0 0 0 0 0 0 0 0 0 0 0 0 0 0 0 0 127 0" result="hardAlpha"/>
<feOffset dy="4"/>
<feGaussianBlur stdDeviation="2"/>
<feComposite in2="hardAlpha" operator="out"/>
<feColorMatrix type="matrix" values="0 0 0 0 0 0 0 0 0 0 0 0 0 0 0 0 0 0 0.25 0"/>
<feBlend mode="normal" in2="BackgroundImageFix" result="effect1_dropShadow_7_69"/>
<feBlend mode="normal" in="SourceGraphic" in2="effect1_dropShadow_7_69" result="shape"/>
<feColorMatrix in="SourceAlpha" type="matrix" values="0 0 0 0 0 0 0 0 0 0 0 0 0 0 0 0 0 0 127 0" result="hardAlpha"/>
<feOffset dy="4"/>
<feGaussianBlur stdDeviation="2"/>
<feComposite in2="hardAlpha" operator="arithmetic" k2="-1" k3="1"/>
<feColorMatrix type="matrix" values="0 0 0 0 0 0 0 0 0 0 0 0 0 0 0 0 0 0 0.25 0"/>
<feBlend mode="normal" in2="shape" result="effect2_innerShadow_7_69"/>
</filter>
<filter id="filter1_di_7_69" x="263.88" y="88.8" width="373.637" height="101" filterUnits="userSpaceOnUse" color-interpolation-filters="sRGB">
<feFlood flood-opacity="0" result="BackgroundImageFix"/>
<feColorMatrix in="SourceAlpha" type="matrix" values="0 0 0 0 0 0 0 0 0 0 0 0 0 0 0 0 0 0 127 0" result="hardAlpha"/>
<feOffset dy="4"/>
<feGaussianBlur stdDeviation="2"/>
<feComposite in2="hardAlpha" operator="out"/>
<feColorMatrix type="matrix" values="0 0 0 0 0 0 0 0 0 0 0 0 0 0 0 0 0 0 0.25 0"/>
<feBlend mode="normal" in2="BackgroundImageFix" result="effect1_dropShadow_7_69"/>
<feBlend mode="normal" in="SourceGraphic" in2="effect1_dropShadow_7_69" result="shape"/>
<feColorMatrix in="SourceAlpha" type="matrix" values="0 0 0 0 0 0 0 0 0 0 0 0 0 0 0 0 0 0 127 0" result="hardAlpha"/>
<feOffset dy="4"/>
<feGaussianBlur stdDeviation="2"/>
<feComposite in2="hardAlpha" operator="arithmetic" k2="-1" k3="1"/>
<feColorMatrix type="matrix" values="0 0 0 0 0 0 0 0 0 0 0 0 0 0 0 0 0 0 0.25 0"/>
<feBlend mode="normal" in2="shape" result="effect2_innerShadow_7_69"/>
</filter>
<filter id="filter2_di_7_69" x="128.99" y="65" width="134.01" height="151" filterUnits="userSpaceOnUse" color-interpolation-filters="sRGB">
<feFlood flood-opacity="0" result="BackgroundImageFix"/>
<feColorMatrix in="SourceAlpha" type="matrix" values="0 0 0 0 0 0 0 0 0 0 0 0 0 0 0 0 0 0 127 0" result="hardAlpha"/>
<feOffset dy="4"/>
<feGaussianBlur stdDeviation="2"/>
<feComposite in2="hardAlpha" operator="out"/>
<feColorMatrix type="matrix" values="0 0 0 0 0 0 0 0 0 0 0 0 0 0 0 0 0 0 0.25 0"/>
<feBlend mode="normal" in2="BackgroundImageFix" result="effect1_dropShadow_7_69"/>
<feBlend mode="normal" in="SourceGraphic" in2="effect1_dropShadow_7_69" result="shape"/>
<feColorMatrix in="SourceAlpha" type="matrix" values="0 0 0 0 0 0 0 0 0 0 0 0 0 0 0 0 0 0 127 0" result="hardAlpha"/>
<feOffset dy="4"/>
<feGaussianBlur stdDeviation="2"/>
<feComposite in2="hardAlpha" operator="arithmetic" k2="-1" k3="1"/>
<feColorMatrix type="matrix" values="0 0 0 0 0 0 0 0 0 0 0 0 0 0 0 0 0 0 0.25 0"/>
<feBlend mode="normal" in2="shape" result="effect2_innerShadow_7_69"/>
</filter>
<filter id="filter3_d_7_69" x="251.533" y="0.0506897" width="53.9364" height="46.2487" filterUnits="userSpaceOnUse" color-interpolation-filters="sRGB">
<feFlood flood-opacity="0" result="BackgroundImageFix"/>
<feColorMatrix in="SourceAlpha" type="matrix" values="0 0 0 0 0 0 0 0 0 0 0 0 0 0 0 0 0 0 127 0" result="hardAlpha"/>
<feOffset dy="4"/>
<feGaussianBlur stdDeviation="2"/>
<feComposite in2="hardAlpha" operator="out"/>
<feColorMatrix type="matrix" values="0 0 0 0 0 0 0 0 0 0 0 0 0 0 0 0 0 0 0.25 0"/>
<feBlend mode="normal" in2="BackgroundImageFix" result="effect1_dropShadow_7_69"/>
<feBlend mode="normal" in="SourceGraphic" in2="effect1_dropShadow_7_69" result="shape"/>
</filter>
<filter id="filter4_d_7_69" x="55.7822" y="2.16779" width="240.466" height="206.332" filterUnits="userSpaceOnUse" color-interpolation-filters="sRGB">
<feFlood flood-opacity="0" result="BackgroundImageFix"/>
<feColorMatrix in="SourceAlpha" type="matrix" values="0 0 0 0 0 0 0 0 0 0 0 0 0 0 0 0 0 0 127 0" result="hardAlpha"/>
<feOffset dy="4"/>
<feGaussianBlur stdDeviation="2"/>
<feComposite in2="hardAlpha" operator="out"/>
<feColorMatrix type="matrix" values="0 0 0 0 0 0 0 0 0 0 0 0 0 0 0 0 0 0 0.25 0"/>
<feBlend mode="normal" in2="BackgroundImageFix" result="effect1_dropShadow_7_69"/>
<feBlend mode="normal" in="SourceGraphic" in2="effect1_dropShadow_7_69" result="shape"/>
</filter>
</defs>
</svg>
