<svg width="2292" height="462" viewBox="0 0 2292 462" fill="none" xmlns="http://www.w3.org/2000/svg">
<g filter="url(#filter0_i_14_116)">
<path d="M583.019 403.2C562.485 403.2 544.352 399.067 528.619 390.8C512.885 382.533 500.619 371.067 491.819 356.4C483.285 341.467 479.019 324.267 479.019 304.8V215.2C479.019 195.733 483.285 178.533 491.819 163.6C500.619 148.667 512.885 137.2 528.619 129.2C544.352 120.933 562.485 116.8 583.019 116.8C603.285 116.8 621.152 120.8 636.619 128.8C652.352 136.8 664.485 147.733 673.019 161.6C681.819 175.2 686.219 190.4 686.219 207.2V210C686.219 211.333 685.685 212.533 684.619 213.6C683.819 214.4 682.752 214.8 681.419 214.8H634.619C633.285 214.8 632.085 214.4 631.019 213.6C630.219 212.533 629.819 211.333 629.819 210V208.8C629.819 196.533 625.552 186.267 617.019 178C608.485 169.467 597.152 165.2 583.019 165.2C568.619 165.2 557.019 169.733 548.219 178.8C539.685 187.6 535.419 199.2 535.419 213.6V306.4C535.419 320.8 540.085 332.533 549.419 341.6C558.752 350.4 570.619 354.8 585.019 354.8C598.885 354.8 609.952 351.2 618.219 344C626.485 336.533 630.619 326.267 630.619 313.2V295.2C630.619 293.867 629.952 293.2 628.619 293.2H583.819C582.485 293.2 581.285 292.8 580.219 292C579.419 290.933 579.019 289.733 579.019 288.4V251.6C579.019 250.267 579.419 249.2 580.219 248.4C581.285 247.333 582.485 246.8 583.819 246.8H681.419C682.752 246.8 683.819 247.333 684.619 248.4C685.685 249.2 686.219 250.267 686.219 251.6V304.4C686.219 324.667 681.952 342.267 673.419 357.2C664.885 372.133 652.752 383.6 637.019 391.6C621.552 399.333 603.552 403.2 583.019 403.2ZM828.341 191.6C837.941 191.6 845.541 193.467 851.141 197.2C853.274 198.267 854.074 200.267 853.541 203.2L845.141 248.8C844.874 252 843.007 252.933 839.541 251.6C835.541 250.267 830.874 249.6 825.541 249.6C823.407 249.6 820.474 249.867 816.741 250.4C807.141 251.2 799.007 254.8 792.341 261.2C785.674 267.333 782.341 275.6 782.341 286V395.2C782.341 396.533 781.807 397.733 780.741 398.8C779.941 399.6 778.874 400 777.541 400H730.741C729.407 400 728.207 399.6 727.141 398.8C726.341 397.733 725.941 396.533 725.941 395.2V199.2C725.941 197.867 726.341 196.8 727.141 196C728.207 194.933 729.407 194.4 730.741 194.4H777.541C778.874 194.4 779.941 194.933 780.741 196C781.807 196.8 782.341 197.867 782.341 199.2V214.4C782.341 215.2 782.607 215.733 783.141 216C783.674 216.267 784.074 216.133 784.341 215.6C795.274 199.6 809.941 191.6 828.341 191.6ZM964.788 403.2C942.388 403.2 923.188 397.333 907.188 385.6C891.188 373.867 880.254 357.867 874.388 337.6C870.654 325.067 868.788 311.467 868.788 296.8C868.788 281.067 870.654 266.933 874.388 254.4C880.521 234.667 891.588 219.2 907.588 208C923.588 196.8 942.788 191.2 965.188 191.2C987.054 191.2 1005.72 196.8 1021.19 208C1036.65 218.933 1047.59 234.267 1053.99 254C1058.25 267.333 1060.39 281.333 1060.39 296C1060.39 310.4 1058.52 323.867 1054.79 336.4C1048.92 357.2 1037.99 373.6 1021.99 385.6C1006.25 397.333 987.188 403.2 964.788 403.2ZM964.788 354.8C973.588 354.8 981.054 352.133 987.188 346.8C993.321 341.467 997.721 334.133 1000.39 324.8C1002.52 316.267 1003.59 306.933 1003.59 296.8C1003.59 285.6 1002.52 276.133 1000.39 268.4C997.454 259.333 992.921 252.267 986.788 247.2C980.654 242.133 973.188 239.6 964.388 239.6C955.321 239.6 947.721 242.133 941.588 247.2C935.721 252.267 931.454 259.333 928.788 268.4C926.654 274.8 925.588 284.267 925.588 296.8C925.588 308.8 926.521 318.133 928.388 324.8C931.054 334.133 935.454 341.467 941.588 346.8C947.988 352.133 955.721 354.8 964.788 354.8ZM1280.24 123.2C1281.58 121.067 1283.44 120 1285.84 120H1332.64C1333.98 120 1335.04 120.533 1335.84 121.6C1336.91 122.4 1337.44 123.467 1337.44 124.8V395.2C1337.44 396.533 1336.91 397.733 1335.84 398.8C1335.04 399.6 1333.98 400 1332.64 400H1285.84C1284.51 400 1283.31 399.6 1282.24 398.8C1281.44 397.733 1281.04 396.533 1281.04 395.2V218.8C1281.04 217.733 1280.78 217.2 1280.24 217.2C1279.71 217.2 1279.18 217.6 1278.64 218.4L1236.24 284.8C1234.91 286.933 1233.04 288 1230.64 288H1207.04C1204.64 288 1202.78 286.933 1201.44 284.8L1159.04 218.4C1158.51 217.6 1157.98 217.333 1157.44 217.6C1156.91 217.6 1156.64 218.133 1156.64 219.2V395.2C1156.64 396.533 1156.11 397.733 1155.04 398.8C1154.24 399.6 1153.18 400 1151.84 400H1105.04C1103.71 400 1102.51 399.6 1101.44 398.8C1100.64 397.733 1100.24 396.533 1100.24 395.2V124.8C1100.24 123.467 1100.64 122.4 1101.44 121.6C1102.51 120.533 1103.71 120 1105.04 120H1151.84C1154.24 120 1156.11 121.067 1157.44 123.2L1217.44 216.4C1218.24 218 1219.04 218 1219.84 216.4L1280.24 123.2ZM1464.58 191.2C1481.91 191.2 1497.38 194.267 1510.98 200.4C1524.58 206.267 1535.11 214.4 1542.58 224.8C1550.31 235.2 1554.18 246.8 1554.18 259.6V395.2C1554.18 396.533 1553.65 397.733 1552.58 398.8C1551.78 399.6 1550.71 400 1549.38 400H1502.58C1501.25 400 1500.05 399.6 1498.98 398.8C1498.18 397.733 1497.78 396.533 1497.78 395.2V382C1497.78 381.2 1497.51 380.667 1496.98 380.4C1496.45 380.133 1495.91 380.4 1495.38 381.2C1484.18 395.867 1466.18 403.2 1441.38 403.2C1420.58 403.2 1403.78 398.133 1390.98 388C1378.18 377.867 1371.78 362.933 1371.78 343.2C1371.78 322.667 1378.98 306.8 1393.38 295.6C1407.78 284.133 1428.31 278.4 1454.98 278.4H1495.78C1497.11 278.4 1497.78 277.733 1497.78 276.4V267.6C1497.78 258.8 1495.11 252 1489.78 247.2C1484.45 242.133 1476.45 239.6 1465.78 239.6C1457.51 239.6 1450.58 241.067 1444.98 244C1439.65 246.933 1436.18 251.067 1434.58 256.4C1433.78 259.333 1432.05 260.667 1429.38 260.4L1380.98 254C1377.78 253.467 1376.31 252.267 1376.58 250.4C1377.65 239.2 1382.05 229.067 1389.78 220C1397.78 210.933 1408.18 203.867 1420.98 198.8C1434.05 193.733 1448.58 191.2 1464.58 191.2ZM1456.58 361.2C1468.05 361.2 1477.78 358.133 1485.78 352C1493.78 345.867 1497.78 338 1497.78 328.4V314C1497.78 312.667 1497.11 312 1495.78 312H1466.98C1454.98 312 1445.51 314.267 1438.58 318.8C1431.91 323.333 1428.58 329.733 1428.58 338C1428.58 345.2 1431.11 350.933 1436.18 355.2C1441.25 359.2 1448.05 361.2 1456.58 361.2ZM1696.31 191.6C1705.91 191.6 1713.51 193.467 1719.11 197.2C1721.24 198.267 1722.04 200.267 1721.51 203.2L1713.11 248.8C1712.84 252 1710.98 252.933 1707.51 251.6C1703.51 250.267 1698.84 249.6 1693.51 249.6C1691.38 249.6 1688.44 249.867 1684.71 250.4C1675.11 251.2 1666.98 254.8 1660.31 261.2C1653.64 267.333 1650.31 275.6 1650.31 286V395.2C1650.31 396.533 1649.78 397.733 1648.71 398.8C1647.91 399.6 1646.84 400 1645.51 400H1598.71C1597.38 400 1596.18 399.6 1595.11 398.8C1594.31 397.733 1593.91 396.533 1593.91 395.2V199.2C1593.91 197.867 1594.31 196.8 1595.11 196C1596.18 194.933 1597.38 194.4 1598.71 194.4H1645.51C1646.84 194.4 1647.91 194.933 1648.71 196C1649.78 196.8 1650.31 197.867 1650.31 199.2V214.4C1650.31 215.2 1650.58 215.733 1651.11 216C1651.64 216.267 1652.04 216.133 1652.31 215.6C1663.24 199.6 1677.91 191.6 1696.31 191.6ZM1751.83 400C1750.5 400 1749.3 399.6 1748.23 398.8C1747.43 397.733 1747.03 396.533 1747.03 395.2V124.8C1747.03 123.467 1747.43 122.4 1748.23 121.6C1749.3 120.533 1750.5 120 1751.83 120H1798.63C1799.97 120 1801.03 120.533 1801.83 121.6C1802.9 122.4 1803.43 123.467 1803.43 124.8V259.6C1803.43 260.4 1803.7 260.933 1804.23 261.2C1804.77 261.2 1805.3 260.933 1805.83 260.4L1860.23 197.2C1862.1 195.333 1864.1 194.4 1866.23 194.4H1919.43C1922.1 194.4 1923.43 195.333 1923.43 197.2C1923.43 198 1923.03 199.067 1922.23 200.4L1871.43 264.8C1870.9 265.867 1870.77 266.8 1871.03 267.6L1930.63 394.4C1931.17 395.467 1931.43 396.267 1931.43 396.8C1931.43 398.933 1929.97 400 1927.03 400H1877.83C1875.17 400 1873.3 398.8 1872.23 396.4L1832.63 302.8C1832.37 302.267 1831.83 302 1831.03 302C1830.5 301.733 1830.1 301.867 1829.83 302.4L1804.23 334.4C1803.7 335.467 1803.43 336.267 1803.43 336.8V395.2C1803.43 396.533 1802.9 397.733 1801.83 398.8C1801.03 399.6 1799.97 400 1798.63 400H1751.83ZM2123.96 276C2125.56 286.133 2126.09 297.467 2125.56 310C2125.29 313.2 2123.56 314.8 2120.36 314.8H1996.76C1995.16 314.8 1994.62 315.467 1995.16 316.8C1995.96 322.133 1997.42 327.467 1999.56 332.8C2006.49 347.733 2020.62 355.2 2041.96 355.2C2059.02 354.933 2072.49 348 2082.36 334.4C2083.42 332.8 2084.62 332 2085.96 332C2086.76 332 2087.69 332.533 2088.76 333.6L2117.56 362C2118.89 363.333 2119.56 364.533 2119.56 365.6C2119.56 366.133 2119.02 367.2 2117.96 368.8C2109.16 379.733 2097.82 388.267 2083.96 394.4C2070.09 400.267 2054.89 403.2 2038.36 403.2C2015.42 403.2 1995.96 398 1979.96 387.6C1964.22 377.2 1952.89 362.667 1945.96 344C1940.36 330.667 1937.56 313.2 1937.56 291.6C1937.56 276.933 1939.56 264 1943.56 252.8C1949.69 233.867 1960.36 218.8 1975.56 207.6C1991.02 196.4 2009.29 190.8 2030.36 190.8C2057.02 190.8 2078.36 198.533 2094.36 214C2110.62 229.467 2120.49 250.133 2123.96 276ZM2030.76 239.6C2013.96 239.6 2002.89 247.467 1997.56 263.2C1996.49 266.667 1995.56 270.933 1994.76 276C1994.76 277.333 1995.42 278 1996.76 278H2065.96C2067.56 278 2068.09 277.333 2067.56 276C2066.22 268.267 2065.56 264.533 2065.56 264.8C2063.16 256.8 2058.89 250.667 2052.76 246.4C2046.89 241.867 2039.56 239.6 2030.76 239.6ZM2273.63 234.8C2273.63 236.133 2273.09 237.333 2272.03 238.4C2271.23 239.2 2270.16 239.6 2268.83 239.6H2230.43C2229.09 239.6 2228.43 240.267 2228.43 241.6V326.4C2228.43 335.2 2230.16 341.733 2233.63 346C2237.36 350.267 2243.23 352.4 2251.23 352.4H2264.43C2265.76 352.4 2266.83 352.933 2267.63 354C2268.69 354.8 2269.23 355.867 2269.23 357.2V395.2C2269.23 398.133 2267.63 399.867 2264.43 400.4C2253.23 400.933 2245.23 401.2 2240.43 401.2C2218.29 401.2 2201.76 397.6 2190.83 390.4C2179.89 382.933 2174.29 369.067 2174.03 348.8V241.6C2174.03 240.267 2173.36 239.6 2172.03 239.6H2149.23C2147.89 239.6 2146.69 239.2 2145.63 238.4C2144.83 237.333 2144.43 236.133 2144.43 234.8V199.2C2144.43 197.867 2144.83 196.8 2145.63 196C2146.69 194.933 2147.89 194.4 2149.23 194.4H2172.03C2173.36 194.4 2174.03 193.733 2174.03 192.4V144.8C2174.03 143.467 2174.43 142.4 2175.23 141.6C2176.29 140.533 2177.49 140 2178.83 140H2223.63C2224.96 140 2226.03 140.533 2226.83 141.6C2227.89 142.4 2228.43 143.467 2228.43 144.8V192.4C2228.43 193.733 2229.09 194.4 2230.43 194.4H2268.83C2270.16 194.4 2271.23 194.933 2272.03 196C2273.09 196.8 2273.63 197.867 2273.63 199.2V234.8Z" fill="#6366F1"/>
</g>
<path fill-rule="evenodd" clip-rule="evenodd" d="M309.687 57C367.5 57 405 94.5 405 152.313V361.687C405 419.5 367.5 457 309.687 457H100.313C42.5 457 5 419.5 5 361.687V152.313C5 94.5 42.5 57 100.313 57H309.687Z" stroke="#BFBFBF" stroke-width="10"/>
<g filter="url(#filter1_di_14_116)">
<path fill-rule="evenodd" clip-rule="evenodd" d="M205.667 424.333C297.714 424.333 372.333 349.714 372.333 257.667C372.333 165.619 297.714 91 205.667 91C113.619 91 39 165.619 39 257.667C39 349.714 113.619 424.333 205.667 424.333Z" fill="url(#paint0_linear_14_116)"/>
</g>
<g filter="url(#filter2_di_14_116)">
<path fill-rule="evenodd" clip-rule="evenodd" d="M95 338.667L126.667 358.667L166.667 290.333L225 325.333L276.667 232L313.333 253.667L300 157L210 193.667L245 213.667L211.667 273.667L153.333 238.667L95 338.667Z" fill="white"/>
</g>
<defs>
<filter id="filter0_i_14_116" x="479.019" y="116.8" width="1798.61" height="296.4" filterUnits="userSpaceOnUse" color-interpolation-filters="sRGB">
<feFlood flood-opacity="0" result="BackgroundImageFix"/>
<feBlend mode="normal" in="SourceGraphic" in2="BackgroundImageFix" result="shape"/>
<feColorMatrix in="SourceAlpha" type="matrix" values="0 0 0 0 0 0 0 0 0 0 0 0 0 0 0 0 0 0 127 0" result="hardAlpha"/>
<feOffset dx="4" dy="10"/>
<feGaussianBlur stdDeviation="5"/>
<feComposite in2="hardAlpha" operator="arithmetic" k2="-1" k3="1"/>
<feColorMatrix type="matrix" values="0 0 0 0 0 0 0 0 0 0 0 0 0 0 0 0 0 0 0.25 0"/>
<feBlend mode="normal" in2="shape" result="effect1_innerShadow_14_116"/>
</filter>
<filter id="filter1_di_14_116" x="35" y="91" width="341.333" height="343.333" filterUnits="userSpaceOnUse" color-interpolation-filters="sRGB">
<feFlood flood-opacity="0" result="BackgroundImageFix"/>
<feColorMatrix in="SourceAlpha" type="matrix" values="0 0 0 0 0 0 0 0 0 0 0 0 0 0 0 0 0 0 127 0" result="hardAlpha"/>
<feOffset dy="4"/>
<feGaussianBlur stdDeviation="2"/>
<feComposite in2="hardAlpha" operator="out"/>
<feColorMatrix type="matrix" values="0 0 0 0 0 0 0 0 0 0 0 0 0 0 0 0 0 0 0.25 0"/>
<feBlend mode="normal" in2="BackgroundImageFix" result="effect1_dropShadow_14_116"/>
<feBlend mode="normal" in="SourceGraphic" in2="effect1_dropShadow_14_116" result="shape"/>
<feColorMatrix in="SourceAlpha" type="matrix" values="0 0 0 0 0 0 0 0 0 0 0 0 0 0 0 0 0 0 127 0" result="hardAlpha"/>
<feOffset dy="10"/>
<feGaussianBlur stdDeviation="5"/>
<feComposite in2="hardAlpha" operator="arithmetic" k2="-1" k3="1"/>
<feColorMatrix type="matrix" values="0 0 0 0 0 0 0 0 0 0 0 0 0 0 0 0 0 0 0.25 0"/>
<feBlend mode="normal" in2="shape" result="effect2_innerShadow_14_116"/>
</filter>
<filter id="filter2_di_14_116" x="91" y="157" width="226.333" height="209.667" filterUnits="userSpaceOnUse" color-interpolation-filters="sRGB">
<feFlood flood-opacity="0" result="BackgroundImageFix"/>
<feColorMatrix in="SourceAlpha" type="matrix" values="0 0 0 0 0 0 0 0 0 0 0 0 0 0 0 0 0 0 127 0" result="hardAlpha"/>
<feOffset dy="4"/>
<feGaussianBlur stdDeviation="2"/>
<feComposite in2="hardAlpha" operator="out"/>
<feColorMatrix type="matrix" values="0 0 0 0 0 0 0 0 0 0 0 0 0 0 0 0 0 0 0.25 0"/>
<feBlend mode="normal" in2="BackgroundImageFix" result="effect1_dropShadow_14_116"/>
<feBlend mode="normal" in="SourceGraphic" in2="effect1_dropShadow_14_116" result="shape"/>
<feColorMatrix in="SourceAlpha" type="matrix" values="0 0 0 0 0 0 0 0 0 0 0 0 0 0 0 0 0 0 127 0" result="hardAlpha"/>
<feOffset dx="2" dy="4"/>
<feGaussianBlur stdDeviation="2.5"/>
<feComposite in2="hardAlpha" operator="arithmetic" k2="-1" k3="1"/>
<feColorMatrix type="matrix" values="0 0 0 0 0 0 0 0 0 0 0 0 0 0 0 0 0 0 0.25 0"/>
<feBlend mode="normal" in2="shape" result="effect2_innerShadow_14_116"/>
</filter>
<linearGradient id="paint0_linear_14_116" x1="39" y1="91" x2="39" y2="424.333" gradientUnits="userSpaceOnUse">
<stop stop-color="#6366F1"/>
<stop offset="1" stop-color="#5EEAD4"/>
</linearGradient>
</defs>
</svg>
