<svg width="352" height="352" viewBox="0 0 352 352" fill="none" xmlns="http://www.w3.org/2000/svg">
<path fill-rule="evenodd" clip-rule="evenodd" d="M267.601 1C318.187 1 351 33.8125 351 84.3986V267.601C351 318.187 318.187 351 267.601 351H84.3986C33.8125 351 1 318.187 1 267.601V84.3986C1 33.8125 33.8125 1 84.3986 1H267.601Z" stroke="#A4A4A4" stroke-width="2"/>
<g filter="url(#filter0_di_16_32)">
<path fill-rule="evenodd" clip-rule="evenodd" d="M176.583 322.417C257.125 322.417 322.417 257.125 322.417 176.583C322.417 96.0419 257.125 30.75 176.583 30.75C96.0419 30.75 30.75 96.0419 30.75 176.583C30.75 257.125 96.0419 322.417 176.583 322.417Z" fill="url(#paint0_linear_16_32)"/>
</g>
<g filter="url(#filter1_di_16_32)">
<path fill-rule="evenodd" clip-rule="evenodd" d="M79.75 247.458L107.458 264.958L142.458 205.167L193.5 235.792L238.708 154.125L270.792 173.083L259.125 88.5L180.375 120.583L211 138.083L181.833 190.583L130.792 159.958L79.75 247.458Z" fill="white"/>
</g>
<defs>
<filter id="filter0_di_16_32" x="26.75" y="30.75" width="299.667" height="301.667" filterUnits="userSpaceOnUse" color-interpolation-filters="sRGB">
<feFlood flood-opacity="0" result="BackgroundImageFix"/>
<feColorMatrix in="SourceAlpha" type="matrix" values="0 0 0 0 0 0 0 0 0 0 0 0 0 0 0 0 0 0 127 0" result="hardAlpha"/>
<feOffset dy="4"/>
<feGaussianBlur stdDeviation="2"/>
<feComposite in2="hardAlpha" operator="out"/>
<feColorMatrix type="matrix" values="0 0 0 0 0 0 0 0 0 0 0 0 0 0 0 0 0 0 0.25 0"/>
<feBlend mode="normal" in2="BackgroundImageFix" result="effect1_dropShadow_16_32"/>
<feBlend mode="normal" in="SourceGraphic" in2="effect1_dropShadow_16_32" result="shape"/>
<feColorMatrix in="SourceAlpha" type="matrix" values="0 0 0 0 0 0 0 0 0 0 0 0 0 0 0 0 0 0 127 0" result="hardAlpha"/>
<feOffset dy="10"/>
<feGaussianBlur stdDeviation="5"/>
<feComposite in2="hardAlpha" operator="arithmetic" k2="-1" k3="1"/>
<feColorMatrix type="matrix" values="0 0 0 0 0 0 0 0 0 0 0 0 0 0 0 0 0 0 0.25 0"/>
<feBlend mode="normal" in2="shape" result="effect2_innerShadow_16_32"/>
</filter>
<filter id="filter1_di_16_32" x="75.75" y="88.5" width="199.042" height="184.458" filterUnits="userSpaceOnUse" color-interpolation-filters="sRGB">
<feFlood flood-opacity="0" result="BackgroundImageFix"/>
<feColorMatrix in="SourceAlpha" type="matrix" values="0 0 0 0 0 0 0 0 0 0 0 0 0 0 0 0 0 0 127 0" result="hardAlpha"/>
<feOffset dy="4"/>
<feGaussianBlur stdDeviation="2"/>
<feComposite in2="hardAlpha" operator="out"/>
<feColorMatrix type="matrix" values="0 0 0 0 0 0 0 0 0 0 0 0 0 0 0 0 0 0 0.25 0"/>
<feBlend mode="normal" in2="BackgroundImageFix" result="effect1_dropShadow_16_32"/>
<feBlend mode="normal" in="SourceGraphic" in2="effect1_dropShadow_16_32" result="shape"/>
<feColorMatrix in="SourceAlpha" type="matrix" values="0 0 0 0 0 0 0 0 0 0 0 0 0 0 0 0 0 0 127 0" result="hardAlpha"/>
<feOffset dx="2" dy="4"/>
<feGaussianBlur stdDeviation="2.5"/>
<feComposite in2="hardAlpha" operator="arithmetic" k2="-1" k3="1"/>
<feColorMatrix type="matrix" values="0 0 0 0 0 0 0 0 0 0 0 0 0 0 0 0 0 0 0.25 0"/>
<feBlend mode="normal" in2="shape" result="effect2_innerShadow_16_32"/>
</filter>
<linearGradient id="paint0_linear_16_32" x1="30.75" y1="30.75" x2="30.75" y2="322.417" gradientUnits="userSpaceOnUse">
<stop stop-color="#6366F1"/>
<stop offset="1" stop-color="#5EEAD4"/>
</linearGradient>
</defs>
</svg>
