<svg width="2797" height="507" viewBox="0 0 2797 507" fill="none" xmlns="http://www.w3.org/2000/svg">
<path fill-rule="evenodd" clip-rule="evenodd" d="M309.687 13C367.5 13 405 50.5 405 108.313V317.687C405 375.5 367.5 413 309.687 413H100.313C42.5 413 5 375.5 5 317.687V108.313C5 50.5 42.5 13 100.313 13H309.687Z" stroke="#BFBFBF" stroke-width="10"/>
<g filter="url(#filter0_di_29_13)">
<path fill-rule="evenodd" clip-rule="evenodd" d="M205.667 380.333C297.714 380.333 372.333 305.714 372.333 213.667C372.333 121.619 297.714 47 205.667 47C113.619 47 39 121.619 39 213.667C39 305.714 113.619 380.333 205.667 380.333Z" fill="url(#paint0_linear_29_13)"/>
</g>
<g filter="url(#filter1_di_29_13)">
<path fill-rule="evenodd" clip-rule="evenodd" d="M95 294.667L126.667 314.667L166.667 246.333L225 281.333L276.667 188L313.333 209.667L300 113L210 149.667L245 169.667L211.667 229.667L153.333 194.667L95 294.667Z" fill="white"/>
</g>
<path d="M815.355 216.62V380H764.955C762.155 367.12 760.755 357.88 760.755 352.28C760.755 351.72 760.755 351.02 760.755 350.18C760.755 349.06 760.755 348.08 760.755 347.24C739.475 374.12 709.375 387.56 670.455 387.56C624.255 387.56 587.715 371.18 560.835 338.42C537.595 309.86 525.975 273.88 525.975 230.48C525.975 180.08 541.935 140.04 573.855 110.36C601.575 84.6 636.435 71.72 678.435 71.72C716.515 71.72 748.155 83.2 773.355 106.16C795.195 126.04 807.655 151.1 810.735 181.34H734.715C727.995 151.38 708.815 136.4 677.175 136.4C654.215 136.4 636.575 144.66 624.255 161.18C611.935 177.42 605.775 200.8 605.775 231.32C605.775 292.36 630.695 322.88 680.535 322.88C717.215 322.88 738.215 306.08 743.535 272.48H688.935V216.62H815.355ZM1019.18 160.76L1018.76 219.56C1008.4 216.48 998.6 214.94 989.36 214.94C952.96 214.94 934.76 238.32 934.76 285.08V380H863.36V162.02H932.24V199.4C940.64 170.56 964.02 156.14 1002.38 156.14C1006.86 156.14 1012.46 157.68 1019.18 160.76ZM1150.83 385.88C1114.15 385.88 1085.03 373.84 1063.47 349.76C1044.71 328.76 1035.33 302.44 1035.33 270.8C1035.33 234.4 1047.37 205.42 1071.45 183.86C1092.45 165.38 1118.77 156.14 1150.41 156.14C1187.37 156.14 1216.63 168.04 1238.19 191.84C1256.67 212.28 1265.91 238.46 1265.91 270.38C1265.91 307.06 1253.87 336.18 1229.79 357.74C1208.79 376.5 1182.47 385.88 1150.83 385.88ZM1149.99 208.22C1136.55 208.22 1126.19 213.68 1118.91 224.6C1111.63 235.52 1107.99 250.92 1107.99 270.8C1107.99 312.8 1122.27 333.8 1150.83 333.8C1179.39 333.8 1193.67 312.66 1193.67 270.38C1193.67 228.94 1179.11 208.22 1149.99 208.22ZM1642.41 79.28V380H1568.07V312.38C1568.07 268.98 1569.33 215.22 1571.85 151.1C1561.21 196.18 1550.43 235.94 1539.51 270.38L1504.65 380H1444.59L1409.31 273.32C1398.95 242.24 1388.03 201.5 1376.55 151.1C1379.07 208.22 1380.33 258.62 1380.33 302.3V380H1305.99V79.28H1418.55L1450.89 183.86C1460.41 214.38 1468.53 249.24 1475.25 288.44C1484.49 243.64 1493.03 208.22 1500.87 182.18L1531.53 79.28H1642.41ZM1904.34 380H1831.68C1829.44 373 1828.18 366.14 1827.9 359.42C1814.46 377.06 1790.66 385.88 1756.5 385.88C1731.02 385.88 1711.42 379.16 1697.7 365.72C1685.66 353.96 1679.64 338.42 1679.64 319.1C1679.64 292.5 1691.4 273.74 1714.92 262.82C1725 258.34 1745.72 253.16 1777.08 247.28L1826.64 238.04V225.02C1826.08 209.06 1815.02 201.08 1793.46 201.08C1781.7 201.08 1773.02 203.18 1767.42 207.38C1762.1 211.3 1758.6 218.44 1756.92 228.8H1689.3C1691.82 180.36 1726.82 156.14 1794.3 156.14C1830.14 156.14 1857.02 162.58 1874.94 175.46C1883.34 181.9 1889.08 189.18 1892.16 197.3C1895.24 205.14 1896.78 217.18 1896.78 233.42C1896.78 236.22 1896.64 244.9 1896.36 259.46V264.08L1895.94 300.2C1895.94 310 1895.94 316.58 1895.94 319.94C1895.94 323.3 1895.8 328.62 1895.52 335.9C1895.52 339.82 1895.52 342.9 1895.52 345.14C1895.52 360.82 1898.46 372.44 1904.34 380ZM1827.48 280.46L1794.72 287.6C1777.64 291.52 1766.3 295.44 1760.7 299.36C1755.1 303.28 1752.3 309.16 1752.3 317C1752.3 334.08 1761.96 342.62 1781.28 342.62C1797.52 342.62 1810.12 336.88 1819.08 325.4C1824.12 319.24 1826.78 309.44 1827.06 296L1827.48 280.46ZM2096.66 160.76L2096.24 219.56C2085.88 216.48 2076.08 214.94 2066.84 214.94C2030.44 214.94 2012.24 238.32 2012.24 285.08V380H1940.84V162.02H2009.72V199.4C2018.12 170.56 2041.5 156.14 2079.86 156.14C2084.34 156.14 2089.94 157.68 2096.66 160.76ZM2345.91 162.02L2265.69 243.5L2356.83 380H2271.15L2216.97 291.8L2196.81 310.28V380H2125.41V79.28H2196.81V236.36C2202.41 227.96 2207.59 221.24 2212.35 216.2L2263.17 162.02H2345.91ZM2592.71 313.22C2589.35 326.1 2582.91 338 2573.39 348.92C2551.83 373.56 2522.01 385.88 2483.93 385.88C2449.49 385.88 2421.63 376.36 2400.35 357.32C2376.55 336.04 2364.65 307.9 2364.65 272.9C2364.65 236.22 2376.97 206.82 2401.61 184.7C2422.89 165.66 2449.35 156.14 2480.99 156.14C2519.35 156.14 2548.89 168.74 2569.61 193.94C2587.81 216.06 2596.91 245.04 2596.91 280.88C2596.91 283.4 2596.91 285.64 2596.91 287.6H2434.79C2435.35 303.28 2439.97 315.6 2448.65 324.56C2457.33 333.24 2469.09 337.58 2483.93 337.58C2502.13 337.58 2515.99 329.46 2525.51 313.22H2592.71ZM2526.77 246.86C2523.13 218.58 2508.15 204.44 2481.83 204.44C2455.23 204.44 2439.83 218.58 2435.63 246.86H2526.77ZM2765.05 162.02V209.06H2713.39V298.94C2713.39 319.1 2722.49 329.18 2740.69 329.18C2751.33 329.18 2759.73 327.08 2765.89 322.88L2778.49 374.12C2764.77 380 2744.75 382.94 2718.43 382.94C2685.95 382.94 2664.25 375.94 2653.33 361.94C2648.57 355.78 2645.49 349.06 2644.09 341.78C2642.69 334.5 2641.99 322.46 2641.99 305.66V209.06H2605.45V162.02H2641.99V115.82L2713.39 78.44V162.02H2765.05Z" fill="white"/>
<defs>
<filter id="filter0_di_29_13" x="35" y="47" width="341.333" height="343.333" filterUnits="userSpaceOnUse" color-interpolation-filters="sRGB">
<feFlood flood-opacity="0" result="BackgroundImageFix"/>
<feColorMatrix in="SourceAlpha" type="matrix" values="0 0 0 0 0 0 0 0 0 0 0 0 0 0 0 0 0 0 127 0" result="hardAlpha"/>
<feOffset dy="4"/>
<feGaussianBlur stdDeviation="2"/>
<feComposite in2="hardAlpha" operator="out"/>
<feColorMatrix type="matrix" values="0 0 0 0 0 0 0 0 0 0 0 0 0 0 0 0 0 0 0.25 0"/>
<feBlend mode="normal" in2="BackgroundImageFix" result="effect1_dropShadow_29_13"/>
<feBlend mode="normal" in="SourceGraphic" in2="effect1_dropShadow_29_13" result="shape"/>
<feColorMatrix in="SourceAlpha" type="matrix" values="0 0 0 0 0 0 0 0 0 0 0 0 0 0 0 0 0 0 127 0" result="hardAlpha"/>
<feOffset dy="10"/>
<feGaussianBlur stdDeviation="5"/>
<feComposite in2="hardAlpha" operator="arithmetic" k2="-1" k3="1"/>
<feColorMatrix type="matrix" values="0 0 0 0 0 0 0 0 0 0 0 0 0 0 0 0 0 0 0.25 0"/>
<feBlend mode="normal" in2="shape" result="effect2_innerShadow_29_13"/>
</filter>
<filter id="filter1_di_29_13" x="91" y="113" width="226.333" height="209.667" filterUnits="userSpaceOnUse" color-interpolation-filters="sRGB">
<feFlood flood-opacity="0" result="BackgroundImageFix"/>
<feColorMatrix in="SourceAlpha" type="matrix" values="0 0 0 0 0 0 0 0 0 0 0 0 0 0 0 0 0 0 127 0" result="hardAlpha"/>
<feOffset dy="4"/>
<feGaussianBlur stdDeviation="2"/>
<feComposite in2="hardAlpha" operator="out"/>
<feColorMatrix type="matrix" values="0 0 0 0 0 0 0 0 0 0 0 0 0 0 0 0 0 0 0.25 0"/>
<feBlend mode="normal" in2="BackgroundImageFix" result="effect1_dropShadow_29_13"/>
<feBlend mode="normal" in="SourceGraphic" in2="effect1_dropShadow_29_13" result="shape"/>
<feColorMatrix in="SourceAlpha" type="matrix" values="0 0 0 0 0 0 0 0 0 0 0 0 0 0 0 0 0 0 127 0" result="hardAlpha"/>
<feOffset dx="2" dy="4"/>
<feGaussianBlur stdDeviation="2.5"/>
<feComposite in2="hardAlpha" operator="arithmetic" k2="-1" k3="1"/>
<feColorMatrix type="matrix" values="0 0 0 0 0 0 0 0 0 0 0 0 0 0 0 0 0 0 0.25 0"/>
<feBlend mode="normal" in2="shape" result="effect2_innerShadow_29_13"/>
</filter>
<linearGradient id="paint0_linear_29_13" x1="39" y1="47" x2="39" y2="380.333" gradientUnits="userSpaceOnUse">
<stop stop-color="#6366F1"/>
<stop offset="1" stop-color="#5EEAD4"/>
</linearGradient>
</defs>
</svg>
